<?xml version="1.0" standalone="no"?>
<!DOCTYPE svg PUBLIC "-//W3C//DTD SVG 20010904//EN"
 "http://www.w3.org/TR/2001/REC-SVG-20010904/DTD/svg10.dtd">
<svg version="1.0" xmlns="http://www.w3.org/2000/svg"
 width="2048.000000pt" height="2048.000000pt" viewBox="0 0 2048.000000 2048.000000"
 preserveAspectRatio="xMidYMid meet">
<metadata>
Created by potrace 1.14, written by Peter Selinger 2001-2017
</metadata>
<g transform="translate(0.000000,2048.000000) scale(0.100000,-0.100000)"
fill="#000000" stroke="none">
<path d="M0 10240 l0 -10240 10240 0 10240 0 0 10240 0 10240 -10240 0 -10240
0 0 -10240z m11820 6960 c376 -69 953 -257 1363 -446 293 -135 458 -225 769
-416 156 -96 258 -177 258 -205 0 -5 -13 -25 -30 -44 -31 -38 -88 -60 -132
-52 -13 2 -91 52 -173 111 -318 225 -529 333 -1095 557 -257 102 -444 160
-826 255 -181 46 -335 88 -343 94 -9 7 -12 28 -9 74 5 74 29 105 76 97 15 -3
79 -14 142 -25z m-2070 -86 c14 -14 -14 -141 -36 -163 -11 -12 -73 -18 -281
-28 -426 -20 -692 -59 -1075 -157 -331 -85 -742 -232 -993 -356 -549 -272
-869 -475 -1347 -856 -249 -199 -675 -624 -938 -934 -170 -201 -424 -555 -591
-825 -392 -631 -599 -1056 -821 -1685 -221 -628 -344 -1239 -379 -1884 -21
-395 22 -1039 96 -1436 7 -41 23 -129 35 -195 84 -473 282 -1055 530 -1560
139 -285 181 -359 319 -573 111 -172 151 -253 151 -307 0 -45 -5 -54 -40 -78
-37 -26 -56 -21 -101 24 -53 53 -222 315 -343 534 -16 28 -55 98 -88 157 -65
116 -216 442 -298 643 -74 182 -191 540 -244 745 -136 527 -236 1319 -236
1864 0 337 55 836 131 1196 40 193 187 705 277 970 71 207 264 684 335 825
343 687 592 1071 1111 1710 138 170 522 566 738 762 505 458 994 778 1653
1084 394 182 492 220 780 301 417 116 633 161 985 204 262 32 646 42 670 18z
m1180 -605 c184 -15 224 -41 210 -135 -5 -32 -15 -53 -31 -66 -27 -21 -35 -21
-419 2 -295 18 -908 8 -1125 -19 -218 -26 -424 -57 -500 -76 -219 -52 -294
-71 -405 -101 -237 -66 -423 -132 -750 -267 -199 -82 -518 -235 -608 -291 -21
-12 -44 -25 -52 -28 -33 -14 -440 -280 -560 -367 -71 -51 -197 -153 -280 -228
-159 -140 -265 -223 -287 -223 -7 0 -33 26 -57 57 -45 57 -45 57 -28 86 26 45
318 306 452 405 256 187 416 293 625 412 403 230 788 410 1115 520 530 180
1162 306 1655 330 197 10 875 3 1045 -11z m1073 -1054 c461 -104 1031 -387
1497 -744 369 -283 618 -538 915 -936 447 -600 717 -1137 963 -1915 85 -270
192 -800 192 -955 0 -80 -1 -84 -32 -114 -28 -27 -39 -31 -88 -31 -31 0 -61 5
-68 12 -7 7 -12 30 -12 53 0 22 -6 69 -14 105 -8 36 -17 90 -21 120 -6 52 -47
264 -80 412 -56 258 -265 860 -384 1108 -69 145 -196 383 -294 550 -53 91
-262 403 -355 529 -84 114 -375 442 -494 557 -177 170 -409 361 -553 455 -396
259 -693 401 -1195 569 -223 75 -320 115 -320 131 0 17 49 87 72 103 34 24
141 20 271 -9z m-1541 0 c757 -63 1288 -246 2109 -724 279 -162 697 -489 960
-751 86 -86 233 -252 424 -481 142 -170 267 -372 466 -750 132 -250 199 -395
267 -574 123 -328 191 -567 252 -884 32 -168 85 -511 93 -603 9 -101 53 -93
-526 -96 -452 -3 -505 -1 -517 13 -9 11 -16 69 -22 173 -24 409 -67 649 -202
1117 -132 460 -264 746 -519 1130 -213 321 -534 622 -812 763 -115 58 -136 80
-193 196 -195 400 -388 555 -851 682 -300 82 -721 124 -1258 124 -602 0 -956
-40 -1248 -141 -304 -104 -452 -212 -599 -436 -86 -132 -130 -228 -166 -371
-38 -151 -56 -257 -75 -450 -17 -163 -26 -198 -60 -216 -102 -55 -258 -186
-355 -296 -131 -151 -270 -359 -360 -539 -351 -700 -493 -1377 -477 -2273 5
-301 21 -464 73 -730 54 -282 165 -646 252 -831 62 -132 226 -424 291 -521 77
-114 257 -321 370 -427 140 -130 144 -137 171 -304 44 -273 76 -394 145 -542
95 -204 217 -358 367 -465 129 -92 222 -136 414 -198 88 -28 179 -59 204 -68
l45 -18 7 -114 c25 -389 30 -416 78 -452 84 -61 464 -104 840 -95 356 9 719
44 777 75 26 14 39 80 58 287 25 265 34 324 56 336 11 5 98 19 193 29 101 12
210 31 262 45 196 57 452 224 558 366 24 32 79 127 121 211 42 84 89 169 105
188 l28 35 27 -25 c15 -14 42 -59 62 -100 71 -153 60 -140 114 -140 26 0 59 5
73 11 49 23 95 -9 346 -237 80 -72 151 -138 158 -147 12 -13 5 -21 -45 -53
-32 -20 -132 -92 -223 -159 -286 -211 -463 -321 -752 -468 -455 -231 -965
-379 -1513 -439 -158 -17 -838 -17 -990 0 -275 31 -728 154 -1060 289 -297
121 -710 369 -955 573 -30 25 -84 68 -120 95 -99 74 -394 340 -495 446 -387
407 -716 851 -981 1324 -21 39 -47 84 -56 100 -87 152 -241 483 -308 665 -121
327 -280 872 -280 961 l0 57 47 23 c27 13 67 23 92 24 l44 0 23 -65 c12 -36
32 -103 45 -150 74 -283 208 -674 316 -920 123 -277 312 -633 421 -790 239
-344 290 -415 401 -559 174 -225 330 -390 574 -609 232 -208 447 -366 624
-458 l52 -27 44 21 c43 20 117 92 117 113 0 25 -61 116 -107 160 -26 26 -104
88 -173 140 -250 186 -575 485 -733 674 -180 216 -385 503 -532 750 -428 715
-671 1675 -648 2560 9 386 60 721 184 1225 42 171 116 378 212 591 14 30 50
113 82 184 63 145 146 306 202 393 155 241 268 399 365 514 239 282 290 339
432 480 142 143 326 301 436 375 52 35 150 121 150 132 0 16 -143 171 -198
214 -12 9 -28 17 -35 17 -44 0 -353 -251 -649 -527 -90 -84 -424 -452 -455
-501 -9 -15 -34 -47 -54 -72 -146 -180 -433 -653 -580 -955 -92 -190 -187
-458 -278 -785 -75 -273 -103 -403 -151 -722 -17 -109 -36 -210 -42 -223 -13
-28 -42 -44 -88 -46 -64 -3 -81 1 -105 27 -30 33 -32 76 -10 249 41 316 149
800 235 1050 107 310 279 682 457 990 143 247 165 282 244 390 383 524 907
1031 1292 1252 33 18 63 33 69 33 5 0 65 27 131 61 156 78 688 292 877 353
264 86 673 183 905 216 273 39 718 50 1017 25z m5046 -420 c25 -18 156 -177
264 -320 290 -387 527 -770 735 -1191 295 -595 390 -819 531 -1259 174 -541
202 -650 292 -1125 39 -202 39 -233 0 -271 -27 -28 -34 -30 -92 -27 -61 3 -63
4 -80 39 -9 19 -21 67 -26 105 -16 107 -58 343 -92 514 -42 209 -92 387 -215
755 -158 475 -268 738 -505 1202 -221 432 -456 818 -657 1074 -54 69 -131 168
-171 219 -40 52 -85 113 -99 137 -23 39 -24 47 -12 75 19 46 58 88 83 88 12 0
31 -7 44 -15z m-388 -756 c81 -50 193 -192 442 -559 190 -281 352 -581 504
-936 67 -156 160 -400 176 -459 3 -11 31 -105 61 -210 101 -347 146 -557 126
-581 -15 -18 -118 -47 -144 -40 -24 6 -55 81 -94 231 -117 444 -136 502 -297
906 -206 519 -398 866 -683 1234 -259 335 -246 316 -245 364 1 36 7 49 29 68
33 29 54 26 125 -18z m-5193 -281 c12 -21 5 -241 -9 -249 -17 -11 -132 -18
-453 -29 -255 -9 -515 -25 -970 -60 -71 -6 -147 -10 -167 -10 -37 0 -38 1 -38
38 0 51 34 208 49 226 7 8 36 20 64 26 75 16 369 37 687 50 576 23 826 25 837
8z m1903 -19 c125 -7 199 -15 207 -23 16 -14 28 -215 15 -234 -11 -16 -202
-17 -577 -2 -132 5 -343 10 -470 11 -317 1 -392 8 -416 38 -27 33 -28 204 -1
221 21 14 942 5 1242 -11z m-1535 -869 c-3 -294 -7 -638 -10 -765 -7 -329 -14
-1082 -20 -2125 -6 -968 -20 -1636 -34 -1685 -7 -23 -10 -3 -11 80 -3 154 2
1542 6 1585 1 19 6 458 9 975 4 517 10 1082 15 1255 4 173 8 502 9 730 2 413
7 581 18 610 16 39 22 -169 18 -660z m-5103 619 c29 -11 57 -24 61 -29 11 -10
-6 -43 -158 -310 -309 -546 -434 -815 -589 -1270 -53 -156 -125 -407 -162
-564 -17 -72 -35 -127 -46 -138 -18 -18 -71 -24 -103 -12 -24 9 -55 78 -55
121 0 218 236 897 515 1480 115 240 330 615 401 701 41 49 59 52 136 21z
m4718 -589 c0 -126 -6 -147 -44 -159 -17 -6 -105 -15 -196 -21 -91 -6 -271
-23 -400 -36 -129 -14 -363 -38 -520 -54 -302 -30 -403 -44 -445 -60 -64 -24
-65 -23 -65 118 0 70 4 132 8 139 6 10 64 21 357 68 50 8 173 21 275 30 102 8
201 17 220 20 19 3 105 9 190 15 85 6 236 17 335 25 248 21 258 21 273 11 8
-6 12 -37 12 -96z m2562 58 c154 -128 363 -366 489 -556 125 -188 290 -569
389 -897 98 -325 237 -1132 200 -1169 -13 -13 -1081 -9 -1116 4 l-23 9 -3
1313 c-2 722 -7 1321 -12 1331 -15 30 11 19 76 -35z m-1112 -14 c129 -8 334
-19 455 -24 121 -6 232 -12 246 -15 19 -5 29 -17 43 -55 17 -48 27 -192 14
-205 -4 -4 -110 0 -235 9 -125 9 -325 20 -443 26 -118 6 -240 13 -270 15 -30
3 -164 10 -298 15 -133 5 -247 12 -252 15 -12 7 -14 228 -2 240 9 10 443 -2
742 -21z m-3378 -735 c16 -69 10 -448 -22 -1504 -10 -329 -20 -821 -40 -2020
-10 -616 -17 -806 -29 -818 -11 -11 -114 110 -170 201 -75 120 -219 422 -274
572 -104 284 -167 764 -167 1270 0 355 49 829 121 1170 63 301 236 726 386
953 72 107 164 218 177 214 6 -2 14 -19 18 -38z m1936 -144 c2 -78 -1 -115
-10 -128 -15 -20 -70 -28 -383 -57 -318 -30 -734 -76 -1104 -124 -107 -14
-198 -23 -204 -19 -23 14 -38 79 -38 165 0 50 3 93 5 96 6 5 110 17 416 47 85
8 166 17 180 20 14 3 95 12 180 20 359 34 472 46 595 60 156 19 313 33 340 31
19 -1 20 -9 23 -111z m1002 85 c63 -6 239 -17 390 -25 283 -16 774 -44 777
-45 1 0 9 -7 17 -16 12 -12 16 -37 16 -109 0 -52 -4 -105 -10 -120 -9 -25 -12
-26 -67 -20 -192 18 -779 57 -1078 70 -264 12 -353 19 -364 30 -11 11 -11 30
-2 110 16 138 14 135 119 135 48 0 139 -5 202 -10z m105 -815 c149 -9 335 -20
415 -25 80 -5 242 -15 360 -21 118 -6 231 -14 250 -18 l35 -7 3 -117 c2 -99 0
-118 -13 -123 -9 -4 -233 6 -498 20 -265 15 -584 30 -709 35 -248 9 -271 14
-282 68 -8 37 19 194 36 205 7 4 40 6 73 3 33 -3 182 -12 330 -20z m-1125
-104 c0 -83 -4 -122 -12 -129 -7 -5 -112 -20 -233 -32 -509 -50 -953 -104
-1320 -159 -104 -16 -194 -25 -198 -21 -5 4 -7 56 -5 115 4 128 12 139 110
150 65 6 224 26 408 51 142 18 597 71 690 79 41 4 102 11 135 15 56 9 151 20
305 35 36 4 67 9 69 11 2 2 15 4 28 4 23 0 23 -1 23 -119z m6332 -660 c119
-46 216 -142 298 -294 69 -127 83 -225 56 -369 -37 -193 -158 -364 -314 -440
-53 -27 -77 -32 -160 -36 -134 -6 -192 11 -267 79 -58 54 -106 120 -149 205
-83 166 -85 406 -5 599 52 126 162 224 304 272 55 18 167 10 237 -16z m-11435
3 c170 -39 284 -147 349 -332 32 -90 34 -265 4 -381 -32 -128 -120 -278 -200
-341 -94 -74 -245 -112 -366 -91 -84 15 -109 28 -166 85 -87 89 -161 265 -183
441 -12 94 32 280 95 406 93 184 261 261 467 213z m5077 -40 c13 -5 16 -26 16
-129 0 -109 -2 -124 -17 -129 -27 -8 -208 -24 -398 -36 -419 -26 -865 -66
-1235 -110 -46 -6 -89 -9 -95 -6 -14 5 -27 150 -18 211 7 52 0 50 193 65 80 6
172 15 205 20 56 9 231 26 495 50 198 17 590 50 700 59 58 5 113 9 122 10 9 0
23 -2 32 -5z m1511 -24 c88 -5 230 -11 315 -15 373 -13 380 -14 391 -43 5 -14
8 -68 7 -121 l-3 -96 -74 -3 c-41 -2 -228 4 -415 13 -188 9 -491 20 -673 25
-183 5 -338 12 -344 16 -13 8 -8 94 11 182 l12 52 306 0 c169 0 379 -4 467
-10z m-1497 -785 c4 -69 -5 -175 -17 -194 -11 -17 -98 -27 -411 -46 -480 -29
-998 -75 -1276 -113 -33 -4 -66 -6 -72 -4 -17 5 -17 246 1 260 6 6 68 15 137
21 69 6 223 20 343 31 120 11 309 27 420 35 111 8 276 22 367 31 240 22 473
42 490 40 11 -1 16 -17 18 -61z m1352 40 c325 -6 684 -20 793 -31 l57 -6 0
-116 c0 -65 -4 -123 -9 -131 -8 -13 -57 -12 -368 3 -197 9 -528 21 -736 26
-249 6 -383 13 -392 20 -18 15 -28 99 -20 170 9 78 18 81 205 75 80 -3 291 -7
470 -10z m2323 -84 c12 -12 -16 -233 -59 -471 -81 -442 -256 -953 -432 -1260
-69 -120 -281 -398 -366 -479 -35 -34 -36 -34 -57 -15 -56 49 -234 253 -272
310 l-43 65 17 177 c24 256 38 577 49 1157 6 281 13 516 16 524 4 12 91 13
570 9 389 -4 569 -9 577 -17z m1452 9 c22 -8 23 -13 19 -67 -36 -435 -88 -725
-205 -1153 -68 -245 -128 -415 -233 -650 -192 -429 -379 -756 -568 -992 -29
-37 -66 -84 -81 -105 -61 -83 -225 -258 -277 -296 -30 -22 -60 -46 -67 -54 -6
-8 -16 -12 -22 -9 -5 4 -62 85 -125 180 -63 96 -137 200 -164 232 -89 108
-202 276 -202 301 0 5 32 44 71 88 292 331 577 977 730 1658 54 238 89 527 93
749 1 54 6 102 11 107 14 14 114 17 588 19 225 0 419 -3 432 -8z m2333 -246
c13 -4 25 -17 28 -31 20 -80 -88 -734 -181 -1098 -55 -212 -124 -424 -255
-775 -102 -275 -386 -872 -540 -1135 -114 -196 -147 -247 -325 -495 -29 -41
-84 -122 -121 -180 -85 -132 -122 -179 -154 -195 -24 -12 -30 -11 -70 16 -69
46 -80 60 -80 94 0 34 17 59 116 172 117 134 284 394 480 748 21 39 47 84 56
100 110 187 353 722 478 1050 147 385 298 968 350 1345 33 239 68 375 99 383
25 7 94 7 119 1z m-1788 -50 c123 -52 119 -44 102 -166 -24 -183 -100 -549
-156 -754 -141 -512 -381 -1095 -608 -1474 -193 -322 -339 -533 -553 -798
-100 -123 -165 -211 -165 -221 0 -5 11 -22 24 -37 14 -16 53 -63 88 -105 35
-42 126 -147 203 -234 262 -295 267 -305 196 -376 -42 -43 -68 -48 -99 -21
-10 9 -73 84 -138 167 -66 82 -146 179 -180 215 -55 59 -147 168 -247 289 -76
93 -114 179 -87 196 5 3 49 51 97 107 49 55 112 128 142 162 114 131 233 302
425 614 235 381 420 787 564 1237 138 427 182 612 262 1085 24 142 26 150 37
150 5 0 47 -16 93 -36z m-5705 -446 c13 -55 10 -194 -4 -217 -14 -22 -93 -29
-554 -51 -551 -26 -900 -47 -1057 -64 -69 -7 -131 -11 -137 -9 -10 4 -13 40
-13 133 l0 129 43 5 c65 8 534 35 807 46 135 6 315 15 400 21 309 22 366 26
437 27 68 2 73 0 78 -20z m1794 -8 c206 -7 386 -16 399 -21 24 -9 24 -11 20
-113 -2 -72 -8 -109 -18 -121 -14 -17 -36 -18 -375 -10 -198 4 -526 11 -730
14 l-370 6 -3 119 c-1 66 0 126 3 134 5 13 55 14 353 9 191 -3 515 -11 721
-17z m4723 -527 c23 -21 23 -63 -1 -188 -36 -187 -150 -543 -248 -775 -91
-215 -298 -635 -400 -809 -215 -367 -614 -921 -664 -921 -27 0 -96 65 -102 98
-9 44 12 96 72 174 311 408 514 738 747 1214 124 256 295 704 374 984 60 211
90 257 165 245 22 -3 47 -13 57 -22z m-12359 -4 c29 -15 37 -28 37 -60 0 -39
65 -296 111 -436 59 -181 139 -364 309 -708 212 -430 391 -701 621 -942 124
-130 150 -166 164 -231 6 -28 2 -37 -28 -67 -43 -43 -77 -45 -131 -9 -74 50
-468 573 -615 817 -84 137 -286 530 -337 652 -113 272 -229 593 -265 734 -42
163 -38 230 14 251 32 13 95 12 120 -1z m8028 -539 c-2 -58 -6 -123 -10 -145
-6 -40 -6 -40 -61 -46 -74 -9 -527 -17 -2375 -44 -500 -7 -709 -13 -1085 -30
-168 -8 -322 -15 -342 -15 -63 0 -67 12 -65 171 2 131 3 140 22 144 11 2 234
7 495 10 261 3 624 13 805 20 505 23 1597 41 2365 40 l255 0 -4 -105z m-186
-1039 c29 -6 30 -9 28 -54 -2 -79 -52 -199 -97 -237 -15 -12 -21 -12 -39 0
-53 35 -1422 35 -2077 0 -96 -5 -281 -14 -410 -20 -365 -17 -836 -49 -881 -59
-57 -13 -81 12 -102 108 -23 98 -22 148 1 155 46 13 133 17 602 31 278 9 575
20 660 25 85 5 423 16 750 25 327 8 728 19 890 24 365 10 635 11 675 2z m1930
-1388 c14 -21 62 -93 106 -160 44 -67 125 -173 180 -236 55 -64 99 -124 99
-135 0 -11 -15 -40 -33 -64 -50 -66 -72 -63 -151 16 -58 59 -102 113 -271 327
-27 35 -62 84 -77 110 l-27 46 21 39 c26 49 76 93 106 94 15 0 30 -12 47 -37z
m-711 -679 c10 -9 16 -33 16 -62 0 -42 -4 -50 -54 -98 -45 -43 -94 -72 -287
-167 -533 -261 -829 -378 -1214 -475 -279 -71 -677 -145 -830 -154 -49 -3 -50
-2 -62 32 -18 54 -16 124 5 142 19 18 85 32 222 48 260 30 644 115 905 200
316 103 563 208 855 364 353 189 406 209 444 170z m-7033 -286 c19 -6 84 -46
144 -88 105 -73 191 -130 300 -197 119 -74 418 -226 655 -335 248 -113 791
-308 1055 -378 443 -118 850 -188 1305 -225 187 -16 901 -20 998 -6 61 9 97
41 108 97 3 18 23 52 45 75 35 38 41 41 74 35 81 -16 117 -53 125 -131 l5 -50
35 3 c114 10 461 87 810 181 394 105 563 161 730 239 52 24 154 71 226 103
148 65 337 160 557 279 86 46 161 80 177 80 33 0 84 -39 106 -83 18 -34 18
-35 -81 -101 -163 -108 -719 -394 -855 -440 -47 -15 -98 -34 -115 -41 -60 -26
-303 -114 -430 -155 -211 -68 -346 -105 -672 -179 -442 -101 -486 -112 -505
-122 -17 -9 -18 -34 -18 -307 0 -325 11 -516 32 -559 19 -39 96 -64 346 -113
442 -85 669 -113 1057 -130 197 -9 221 -12 239 -29 18 -18 18 -24 7 -75 -9
-39 -20 -62 -39 -77 -26 -21 -34 -21 -177 -15 -451 20 -950 82 -1240 156 -260
66 -356 116 -403 210 l-27 55 -5 445 -5 445 -80 -5 c-148 -9 -871 -3 -996 9
-645 61 -1070 142 -1599 306 -304 94 -369 116 -550 188 -392 154 -739 328
-1076 537 -304 189 -328 205 -374 246 -34 31 -40 42 -40 78 0 61 21 86 74 86
24 0 58 -5 77 -12z m8353 -98 c10 -10 20 -38 23 -64 5 -44 4 -48 -35 -84 -44
-41 -378 -252 -632 -400 -152 -88 -415 -228 -645 -342 -166 -82 -391 -170
-436 -170 -29 0 -52 56 -53 129 l-1 64 65 16 c36 9 71 20 78 24 7 5 23 10 35
12 58 11 548 247 707 340 58 34 182 106 275 160 94 54 249 151 345 215 96 64
182 119 190 122 22 9 63 -2 84 -22z"/>
<path d="M16070 10690 c-82 -14 -194 -110 -244 -209 -97 -190 -66 -417 76
-567 65 -69 116 -89 203 -81 124 12 251 99 299 206 69 155 56 325 -39 480 -34
56 -102 128 -141 149 -31 16 -116 28 -154 22z"/>
<path d="M4600 10682 c-23 -12 -43 -35 -59 -66 -22 -43 -24 -60 -23 -172 1
-112 17 -277 28 -295 2 -4 11 -54 19 -111 27 -189 17 -209 -40 -83 -56 122
-104 398 -90 516 4 33 4 59 0 59 -3 0 -18 -25 -32 -56 -49 -107 -43 -360 12
-481 26 -58 90 -132 142 -164 76 -47 229 -14 325 70 106 93 180 293 158 427
-38 234 -288 435 -440 356z"/>
</g>
</svg>
