<?xml version="1.0" encoding="utf-8"?>
<!-- Generator: Adobe Illustrator 24.3.0, SVG Export Plug-In . SVG Version: 6.00 Build 0)  -->
<svg version="1.1" id="图层_1" xmlns="http://www.w3.org/2000/svg" xmlns:xlink="http://www.w3.org/1999/xlink" x="0px" y="0px"
	 viewBox="0 0 512 512" style="enable-background:new 0 0 512 512;" xml:space="preserve">
<style type="text/css">
	.st0{fill:url(#SVGID_1_);}
	.st1{fill-rule:evenodd;clip-rule:evenodd;fill:#FFFFFF;}
</style>
<linearGradient id="SVGID_1_" gradientUnits="userSpaceOnUse" x1="0.4274" y1="-0.2399" x2="509.8803" y2="510.5432">
	<stop  offset="0" style="stop-color:#F7B369"/>
	<stop  offset="0.1965" style="stop-color:#F39A53"/>
	<stop  offset="0.5668" style="stop-color:#ED6D34"/>
	<stop  offset="0.8461" style="stop-color:#EA4E24"/>
	<stop  offset="1" style="stop-color:#E8401F"/>
</linearGradient>
<path class="st0" d="M396,512H116C51.93,512,0,460.07,0,396V116C0,51.93,51.93,0,116,0h280c64.07,0,116,51.93,116,116v280
	C512,460.07,460.07,512,396,512z"/>
<g>
	<path id="XMLID_43_" class="st1" d="M284.36,172.15c-9.5,0-17.22,7.32-17.22,16.35v39.56c0,5-4.63,9.05-10.33,9.05
		c-5.71,0-10.34-4.05-10.34-9.05v-53.82c0-9.04-7.71-16.36-17.22-16.36c-9.51,0-17.22,7.32-17.22,16.36v43.14
		c0,4.99-4.63,9.05-10.34,9.05c-5.7,0-10.33-4.06-10.33-9.05v-15.63c0-9.03-7.72-16.35-17.22-16.35c-9.51,0-17.22,7.32-17.22,16.35
		v37.01c0,4.99-4.63,9.05-10.34,9.05c-5.7,0-10.33-4.06-10.33-9.05v-4.3c0-9.45-7.71-17.11-17.22-17.11
		c-9.51,0-17.22,7.66-17.22,17.11v51.37c0,9.45,7.7,17.12,17.22,17.12c9.5,0,17.22-7.67,17.22-17.12v-4.3
		c0-4.99,4.63-9.05,10.33-9.05c5.71,0,10.34,4.06,10.34,9.05v58.72c0,9.03,7.7,16.36,17.22,16.36c9.5,0,17.22-7.33,17.22-16.36
		v-80.1c0-4.99,4.63-9.05,10.33-9.05c5.71,0,10.34,4.06,10.34,9.05v40.35c0,9.04,7.7,16.36,17.22,16.36
		c9.5,0,17.22-7.32,17.22-16.36v-29.67c0-4.99,4.63-9.05,10.34-9.05c5.7,0,10.33,4.06,10.33,9.05v31.71
		c0,9.03,7.71,16.35,17.22,16.35c9.51,0,17.22-7.32,17.22-16.35V188.5C301.58,179.47,293.88,172.15,284.36,172.15"/>
	<path id="XMLID_42_" class="st1" d="M339.46,216.33c-9.51,0-17.22,7.32-17.22,16.35v65.13c0,9.03,7.7,16.35,17.22,16.35
		c9.5,0,17.22-7.32,17.22-16.35v-65.13C356.68,223.65,348.97,216.33,339.46,216.33"/>
	<path id="XMLID_41_" class="st1" d="M394.56,249.45c-9.5,0-17.22,7.32-17.22,16.35v16.21c0,9.03,7.71,16.35,17.22,16.35
		c9.51,0,17.22-7.32,17.22-16.35V265.8C411.78,256.77,404.08,249.45,394.56,249.45"/>
</g>
</svg>
